<svg xmlns="http://www.w3.org/2000/svg" xmlns:xlink="http://www.w3.org/1999/xlink" width="1920" zoomAndPan="magnify" viewBox="0 0 1440 809.999993" height="1080" preserveAspectRatio="xMidYMid meet" version="1.0"><defs><g/></defs><g fill="#000000" fill-opacity="1"><g transform="translate(41.57813, 440.624998)"><g><path d="M 22.1875 -34.765625 L 26.78125 -34.765625 C 31.0625 -34.765625 34.265625 -35.609375 36.390625 -37.296875 C 38.515625 -38.992188 39.578125 -41.460938 39.578125 -44.703125 C 39.578125 -47.960938 38.6875 -50.367188 36.90625 -51.921875 C 35.125 -53.484375 32.332031 -54.265625 28.53125 -54.265625 L 22.1875 -54.265625 Z M 53.640625 -45.1875 C 53.640625 -38.125 51.429688 -32.71875 47.015625 -28.96875 C 42.597656 -25.226562 36.316406 -23.359375 28.171875 -23.359375 L 22.1875 -23.359375 L 22.1875 0 L 8.265625 0 L 8.265625 -65.671875 L 29.25 -65.671875 C 37.207031 -65.671875 43.257812 -63.957031 47.40625 -60.53125 C 51.5625 -57.101562 53.640625 -51.988281 53.640625 -45.1875 Z M 53.640625 -45.1875 "/></g></g></g><g fill="#000000" fill-opacity="1"><g transform="translate(99.342753, 440.624998)"><g><path d="M 33.609375 0 L 19.671875 0 L 19.671875 -54.09375 L 1.84375 -54.09375 L 1.84375 -65.671875 L 51.4375 -65.671875 L 51.4375 -54.09375 L 33.609375 -54.09375 Z M 33.609375 0 "/></g></g></g><g fill="#000000" fill-opacity="1"><g transform="translate(152.61557, 440.624998)"><g><path d="M 5.25 -6.421875 C 5.25 -8.941406 5.921875 -10.84375 7.265625 -12.125 C 8.617188 -13.414062 10.582031 -14.0625 13.15625 -14.0625 C 15.644531 -14.0625 17.570312 -13.398438 18.9375 -12.078125 C 20.300781 -10.765625 20.984375 -8.878906 20.984375 -6.421875 C 20.984375 -4.054688 20.289062 -2.191406 18.90625 -0.828125 C 17.53125 0.535156 15.613281 1.21875 13.15625 1.21875 C 10.644531 1.21875 8.695312 0.550781 7.3125 -0.78125 C 5.9375 -2.113281 5.25 -3.992188 5.25 -6.421875 Z M 5.25 -6.421875 "/></g></g></g><g fill="#000000" fill-opacity="1"><g transform="translate(178.847715, 440.624998)"><g/></g></g><g fill="#000000" fill-opacity="1"><g transform="translate(202.744122, 440.624998)"><g><path d="M 22.1875 -34.765625 L 26.78125 -34.765625 C 31.0625 -34.765625 34.265625 -35.609375 36.390625 -37.296875 C 38.515625 -38.992188 39.578125 -41.460938 39.578125 -44.703125 C 39.578125 -47.960938 38.6875 -50.367188 36.90625 -51.921875 C 35.125 -53.484375 32.332031 -54.265625 28.53125 -54.265625 L 22.1875 -54.265625 Z M 53.640625 -45.1875 C 53.640625 -38.125 51.429688 -32.71875 47.015625 -28.96875 C 42.597656 -25.226562 36.316406 -23.359375 28.171875 -23.359375 L 22.1875 -23.359375 L 22.1875 0 L 8.265625 0 L 8.265625 -65.671875 L 29.25 -65.671875 C 37.207031 -65.671875 43.257812 -63.957031 47.40625 -60.53125 C 51.5625 -57.101562 53.640625 -51.988281 53.640625 -45.1875 Z M 53.640625 -45.1875 "/></g></g></g><g fill="#000000" fill-opacity="1"><g transform="translate(260.508745, 440.624998)"><g><path d="M 27.984375 -41.421875 C 25.078125 -41.421875 22.800781 -40.5 21.15625 -38.65625 C 19.507812 -36.8125 18.566406 -34.195312 18.328125 -30.8125 L 37.5625 -30.8125 C 37.5 -34.195312 36.613281 -36.8125 34.90625 -38.65625 C 33.195312 -40.5 30.890625 -41.421875 27.984375 -41.421875 Z M 29.921875 0.90625 C 21.835938 0.90625 15.519531 -1.320312 10.96875 -5.78125 C 6.414062 -10.25 4.140625 -16.570312 4.140625 -24.75 C 4.140625 -33.164062 6.238281 -39.671875 10.4375 -44.265625 C 14.644531 -48.867188 20.460938 -51.171875 27.890625 -51.171875 C 34.992188 -51.171875 40.519531 -49.144531 44.46875 -45.09375 C 48.425781 -41.050781 50.40625 -35.46875 50.40625 -28.34375 L 50.40625 -21.703125 L 18.015625 -21.703125 C 18.160156 -17.804688 19.3125 -14.765625 21.46875 -12.578125 C 23.625 -10.390625 26.648438 -9.296875 30.546875 -9.296875 C 33.566406 -9.296875 36.425781 -9.609375 39.125 -10.234375 C 41.820312 -10.867188 44.640625 -11.875 47.578125 -13.25 L 47.578125 -2.65625 C 45.179688 -1.457031 42.617188 -0.566406 39.890625 0.015625 C 37.160156 0.609375 33.835938 0.90625 29.921875 0.90625 Z M 29.921875 0.90625 "/></g></g></g><g fill="#000000" fill-opacity="1"><g transform="translate(314.859595, 440.624998)"><g><path d="M 35.21875 -51.171875 C 37.070312 -51.171875 38.613281 -51.035156 39.84375 -50.765625 L 38.8125 -37.921875 C 37.707031 -38.210938 36.359375 -38.359375 34.765625 -38.359375 C 30.398438 -38.359375 26.992188 -37.234375 24.546875 -34.984375 C 22.109375 -32.742188 20.890625 -29.601562 20.890625 -25.5625 L 20.890625 0 L 7.1875 0 L 7.1875 -50.21875 L 17.5625 -50.21875 L 19.59375 -41.78125 L 20.265625 -41.78125 C 21.816406 -44.59375 23.914062 -46.859375 26.5625 -48.578125 C 29.21875 -50.304688 32.101562 -51.171875 35.21875 -51.171875 Z M 35.21875 -51.171875 "/></g></g></g><g fill="#000000" fill-opacity="1"><g transform="translate(356.633389, 440.624998)"><g><path d="M 28.34375 -10.015625 C 30.738281 -10.015625 33.613281 -10.539062 36.96875 -11.59375 L 36.96875 -1.390625 C 33.550781 0.140625 29.359375 0.90625 24.390625 0.90625 C 18.910156 0.90625 14.921875 -0.476562 12.421875 -3.25 C 9.921875 -6.019531 8.671875 -10.175781 8.671875 -15.71875 L 8.671875 -39.9375 L 2.109375 -39.9375 L 2.109375 -45.734375 L 9.65625 -50.3125 L 13.609375 -60.921875 L 22.375 -60.921875 L 22.375 -50.21875 L 36.4375 -50.21875 L 36.4375 -39.9375 L 22.375 -39.9375 L 22.375 -15.71875 C 22.375 -13.769531 22.921875 -12.332031 24.015625 -11.40625 C 25.109375 -10.476562 26.550781 -10.015625 28.34375 -10.015625 Z M 28.34375 -10.015625 "/></g></g></g><g fill="#000000" fill-opacity="1"><g transform="translate(396.565554, 440.624998)"><g><path d="M 39.078125 0 L 36.4375 -6.828125 L 36.078125 -6.828125 C 33.765625 -3.921875 31.390625 -1.90625 28.953125 -0.78125 C 26.515625 0.34375 23.332031 0.90625 19.40625 0.90625 C 14.582031 0.90625 10.785156 -0.472656 8.015625 -3.234375 C 5.242188 -5.992188 3.859375 -9.914062 3.859375 -15 C 3.859375 -20.332031 5.722656 -24.265625 9.453125 -26.796875 C 13.179688 -29.328125 18.804688 -30.726562 26.328125 -31 L 35.046875 -31.265625 L 35.046875 -33.46875 C 35.046875 -38.5625 32.4375 -41.109375 27.21875 -41.109375 C 23.207031 -41.109375 18.492188 -39.894531 13.078125 -37.46875 L 8.53125 -46.71875 C 14.3125 -49.738281 20.722656 -51.25 27.765625 -51.25 C 34.503906 -51.25 39.671875 -49.78125 43.265625 -46.84375 C 46.859375 -43.914062 48.65625 -39.457031 48.65625 -33.46875 L 48.65625 0 Z M 35.046875 -23.265625 L 29.734375 -23.09375 C 25.753906 -22.96875 22.789062 -22.242188 20.84375 -20.921875 C 18.894531 -19.609375 17.921875 -17.609375 17.921875 -14.921875 C 17.921875 -11.054688 20.140625 -9.125 24.578125 -9.125 C 27.742188 -9.125 30.28125 -10.035156 32.1875 -11.859375 C 34.09375 -13.679688 35.046875 -16.109375 35.046875 -19.140625 Z M 35.046875 -23.265625 "/></g></g></g><g fill="#000000" fill-opacity="1"><g transform="translate(452.12918, 440.624998)"><g><path d="M 52.15625 0 L 38.453125 0 L 38.453125 -29.328125 C 38.453125 -32.953125 37.84375 -35.671875 36.625 -37.484375 C 35.414062 -39.296875 33.507812 -40.203125 30.90625 -40.203125 C 27.40625 -40.203125 24.859375 -38.914062 23.265625 -36.34375 C 21.679688 -33.769531 20.890625 -29.53125 20.890625 -23.625 L 20.890625 0 L 7.1875 0 L 7.1875 -50.21875 L 17.65625 -50.21875 L 19.5 -43.796875 L 20.265625 -43.796875 C 21.609375 -46.109375 23.550781 -47.914062 26.09375 -49.21875 C 28.644531 -50.519531 31.566406 -51.171875 34.859375 -51.171875 C 42.378906 -51.171875 47.472656 -48.710938 50.140625 -43.796875 L 51.34375 -43.796875 C 52.695312 -46.128906 54.679688 -47.941406 57.296875 -49.234375 C 59.921875 -50.523438 62.878906 -51.171875 66.171875 -51.171875 C 71.859375 -51.171875 76.160156 -49.707031 79.078125 -46.78125 C 82.003906 -43.863281 83.46875 -39.1875 83.46875 -32.75 L 83.46875 0 L 69.71875 0 L 69.71875 -29.328125 C 69.71875 -32.953125 69.109375 -35.671875 67.890625 -37.484375 C 66.679688 -39.296875 64.773438 -40.203125 62.171875 -40.203125 C 58.816406 -40.203125 56.304688 -39.003906 54.640625 -36.609375 C 52.984375 -34.210938 52.15625 -30.410156 52.15625 -25.203125 Z M 52.15625 0 "/></g></g></g><g fill="#000000" fill-opacity="1"><g transform="translate(542.459407, 440.624998)"><g><path d="M 35.125 -51.171875 C 41.0625 -51.171875 45.707031 -48.851562 49.0625 -44.21875 C 52.414062 -39.59375 54.09375 -33.253906 54.09375 -25.203125 C 54.09375 -16.910156 52.359375 -10.484375 48.890625 -5.921875 C 45.429688 -1.367188 40.722656 0.90625 34.765625 0.90625 C 28.867188 0.90625 24.242188 -1.238281 20.890625 -5.53125 L 19.953125 -5.53125 L 17.65625 0 L 7.1875 0 L 7.1875 -69.90625 L 20.890625 -69.90625 L 20.890625 -53.640625 C 20.890625 -51.566406 20.707031 -48.253906 20.34375 -43.703125 L 20.890625 -43.703125 C 24.097656 -48.679688 28.84375 -51.171875 35.125 -51.171875 Z M 30.734375 -40.203125 C 27.347656 -40.203125 24.875 -39.160156 23.3125 -37.078125 C 21.757812 -35.003906 20.953125 -31.570312 20.890625 -26.78125 L 20.890625 -25.296875 C 20.890625 -19.898438 21.691406 -16.035156 23.296875 -13.703125 C 24.898438 -11.367188 27.4375 -10.203125 30.90625 -10.203125 C 33.71875 -10.203125 35.953125 -11.492188 37.609375 -14.078125 C 39.273438 -16.671875 40.109375 -20.4375 40.109375 -25.375 C 40.109375 -30.320312 39.269531 -34.03125 37.59375 -36.5 C 35.914062 -38.96875 33.628906 -40.203125 30.734375 -40.203125 Z M 30.734375 -40.203125 "/></g></g></g><g fill="#000000" fill-opacity="1"><g transform="translate(600.67321, 440.624998)"><g><path d="M 39.078125 0 L 36.4375 -6.828125 L 36.078125 -6.828125 C 33.765625 -3.921875 31.390625 -1.90625 28.953125 -0.78125 C 26.515625 0.34375 23.332031 0.90625 19.40625 0.90625 C 14.582031 0.90625 10.785156 -0.472656 8.015625 -3.234375 C 5.242188 -5.992188 3.859375 -9.914062 3.859375 -15 C 3.859375 -20.332031 5.722656 -24.265625 9.453125 -26.796875 C 13.179688 -29.328125 18.804688 -30.726562 26.328125 -31 L 35.046875 -31.265625 L 35.046875 -33.46875 C 35.046875 -38.5625 32.4375 -41.109375 27.21875 -41.109375 C 23.207031 -41.109375 18.492188 -39.894531 13.078125 -37.46875 L 8.53125 -46.71875 C 14.3125 -49.738281 20.722656 -51.25 27.765625 -51.25 C 34.503906 -51.25 39.671875 -49.78125 43.265625 -46.84375 C 46.859375 -43.914062 48.65625 -39.457031 48.65625 -33.46875 L 48.65625 0 Z M 35.046875 -23.265625 L 29.734375 -23.09375 C 25.753906 -22.96875 22.789062 -22.242188 20.84375 -20.921875 C 18.894531 -19.609375 17.921875 -17.609375 17.921875 -14.921875 C 17.921875 -11.054688 20.140625 -9.125 24.578125 -9.125 C 27.742188 -9.125 30.28125 -10.035156 32.1875 -11.859375 C 34.09375 -13.679688 35.046875 -16.109375 35.046875 -19.140625 Z M 35.046875 -23.265625 "/></g></g></g><g fill="#000000" fill-opacity="1"><g transform="translate(656.236836, 440.624998)"><g><path d="M 53.546875 0 L 39.84375 0 L 39.84375 -29.328125 C 39.84375 -32.953125 39.195312 -35.671875 37.90625 -37.484375 C 36.625 -39.296875 34.578125 -40.203125 31.765625 -40.203125 C 27.929688 -40.203125 25.160156 -38.921875 23.453125 -36.359375 C 21.742188 -33.804688 20.890625 -29.5625 20.890625 -23.625 L 20.890625 0 L 7.1875 0 L 7.1875 -50.21875 L 17.65625 -50.21875 L 19.5 -43.796875 L 20.265625 -43.796875 C 21.785156 -46.222656 23.882812 -48.054688 26.5625 -49.296875 C 29.25 -50.546875 32.300781 -51.171875 35.71875 -51.171875 C 41.550781 -51.171875 45.976562 -49.585938 49 -46.421875 C 52.03125 -43.265625 53.546875 -38.707031 53.546875 -32.75 Z M 53.546875 0 "/></g></g></g><g fill="#000000" fill-opacity="1"><g transform="translate(716.696565, 440.624998)"><g><path d="M 50.890625 -50.21875 L 50.890625 -43.265625 L 43.03125 -41.234375 C 44.46875 -38.992188 45.1875 -36.476562 45.1875 -33.6875 C 45.1875 -28.300781 43.304688 -24.101562 39.546875 -21.09375 C 35.796875 -18.082031 30.582031 -16.578125 23.90625 -16.578125 L 21.421875 -16.71875 L 19.40625 -16.9375 C 18 -15.851562 17.296875 -14.65625 17.296875 -13.34375 C 17.296875 -11.363281 19.8125 -10.375 24.84375 -10.375 L 33.375 -10.375 C 38.882812 -10.375 43.082031 -9.191406 45.96875 -6.828125 C 48.863281 -4.460938 50.3125 -0.988281 50.3125 3.59375 C 50.3125 9.46875 47.863281 14.019531 42.96875 17.25 C 38.070312 20.488281 31.039062 22.109375 21.875 22.109375 C 14.863281 22.109375 9.507812 20.882812 5.8125 18.4375 C 2.113281 16 0.265625 12.578125 0.265625 8.171875 C 0.265625 5.148438 1.207031 2.617188 3.09375 0.578125 C 4.988281 -1.453125 7.757812 -2.90625 11.40625 -3.78125 C 10 -4.375 8.769531 -5.351562 7.71875 -6.71875 C 6.675781 -8.082031 6.15625 -9.523438 6.15625 -11.046875 C 6.15625 -12.960938 6.707031 -14.554688 7.8125 -15.828125 C 8.925781 -17.109375 10.53125 -18.363281 12.625 -19.59375 C 9.988281 -20.726562 7.898438 -22.550781 6.359375 -25.0625 C 4.816406 -27.582031 4.046875 -30.550781 4.046875 -33.96875 C 4.046875 -39.445312 5.828125 -43.679688 9.390625 -46.671875 C 12.953125 -49.671875 18.039062 -51.171875 24.65625 -51.171875 C 26.070312 -51.171875 27.742188 -51.039062 29.671875 -50.78125 C 31.597656 -50.53125 32.832031 -50.34375 33.375 -50.21875 Z M 12.125 7.09375 C 12.125 8.976562 13.03125 10.457031 14.84375 11.53125 C 16.65625 12.613281 19.195312 13.15625 22.46875 13.15625 C 27.375 13.15625 31.21875 12.484375 34 11.140625 C 36.789062 9.796875 38.1875 7.953125 38.1875 5.609375 C 38.1875 3.722656 37.363281 2.421875 35.71875 1.703125 C 34.070312 0.984375 31.523438 0.625 28.078125 0.625 L 20.984375 0.625 C 18.460938 0.625 16.351562 1.210938 14.65625 2.390625 C 12.96875 3.578125 12.125 5.144531 12.125 7.09375 Z M 17.109375 -33.78125 C 17.109375 -31.050781 17.726562 -28.894531 18.96875 -27.3125 C 20.21875 -25.726562 22.113281 -24.9375 24.65625 -24.9375 C 27.238281 -24.9375 29.128906 -25.726562 30.328125 -27.3125 C 31.523438 -28.894531 32.125 -31.050781 32.125 -33.78125 C 32.125 -39.832031 29.632812 -42.859375 24.65625 -42.859375 C 19.625 -42.859375 17.109375 -39.832031 17.109375 -33.78125 Z M 17.109375 -33.78125 "/></g></g></g><g fill="#000000" fill-opacity="1"><g transform="translate(768.666747, 440.624998)"><g><path d="M 39.078125 0 L 36.4375 -6.828125 L 36.078125 -6.828125 C 33.765625 -3.921875 31.390625 -1.90625 28.953125 -0.78125 C 26.515625 0.34375 23.332031 0.90625 19.40625 0.90625 C 14.582031 0.90625 10.785156 -0.472656 8.015625 -3.234375 C 5.242188 -5.992188 3.859375 -9.914062 3.859375 -15 C 3.859375 -20.332031 5.722656 -24.265625 9.453125 -26.796875 C 13.179688 -29.328125 18.804688 -30.726562 26.328125 -31 L 35.046875 -31.265625 L 35.046875 -33.46875 C 35.046875 -38.5625 32.4375 -41.109375 27.21875 -41.109375 C 23.207031 -41.109375 18.492188 -39.894531 13.078125 -37.46875 L 8.53125 -46.71875 C 14.3125 -49.738281 20.722656 -51.25 27.765625 -51.25 C 34.503906 -51.25 39.671875 -49.78125 43.265625 -46.84375 C 46.859375 -43.914062 48.65625 -39.457031 48.65625 -33.46875 L 48.65625 0 Z M 35.046875 -23.265625 L 29.734375 -23.09375 C 25.753906 -22.96875 22.789062 -22.242188 20.84375 -20.921875 C 18.894531 -19.609375 17.921875 -17.609375 17.921875 -14.921875 C 17.921875 -11.054688 20.140625 -9.125 24.578125 -9.125 C 27.742188 -9.125 30.28125 -10.035156 32.1875 -11.859375 C 34.09375 -13.679688 35.046875 -16.109375 35.046875 -19.140625 Z M 35.046875 -23.265625 "/></g></g></g><g fill="#000000" fill-opacity="1"><g transform="translate(824.230373, 440.624998)"><g><path d="M 53.546875 0 L 39.84375 0 L 39.84375 -29.328125 C 39.84375 -32.953125 39.195312 -35.671875 37.90625 -37.484375 C 36.625 -39.296875 34.578125 -40.203125 31.765625 -40.203125 C 27.929688 -40.203125 25.160156 -38.921875 23.453125 -36.359375 C 21.742188 -33.804688 20.890625 -29.5625 20.890625 -23.625 L 20.890625 0 L 7.1875 0 L 7.1875 -50.21875 L 17.65625 -50.21875 L 19.5 -43.796875 L 20.265625 -43.796875 C 21.785156 -46.222656 23.882812 -48.054688 26.5625 -49.296875 C 29.25 -50.546875 32.300781 -51.171875 35.71875 -51.171875 C 41.550781 -51.171875 45.976562 -49.585938 49 -46.421875 C 52.03125 -43.265625 53.546875 -38.707031 53.546875 -32.75 Z M 53.546875 0 "/></g></g></g><g fill="#000000" fill-opacity="1"><g transform="translate(884.690056, 440.624998)"><g/></g></g><g fill="#000000" fill-opacity="1"><g transform="translate(908.586509, 440.624998)"><g><path d="M 66.53125 0 L 48.828125 0 L 20.265625 -49.6875 L 19.859375 -49.6875 C 20.421875 -40.90625 20.703125 -34.644531 20.703125 -30.90625 L 20.703125 0 L 8.265625 0 L 8.265625 -65.671875 L 25.828125 -65.671875 L 54.359375 -16.484375 L 54.671875 -16.484375 C 54.222656 -25.023438 54 -31.0625 54 -34.59375 L 54 -65.671875 L 66.53125 -65.671875 Z M 66.53125 0 "/></g></g></g><g fill="#000000" fill-opacity="1"><g transform="translate(983.375018, 440.624998)"><g><path d="M 42.765625 0 L 40.921875 -6.421875 L 40.203125 -6.421875 C 38.734375 -4.085938 36.648438 -2.28125 33.953125 -1 C 31.265625 0.269531 28.195312 0.90625 24.75 0.90625 C 18.851562 0.90625 14.40625 -0.671875 11.40625 -3.828125 C 8.414062 -6.992188 6.921875 -11.539062 6.921875 -17.46875 L 6.921875 -50.21875 L 20.625 -50.21875 L 20.625 -20.890625 C 20.625 -17.265625 21.265625 -14.546875 22.546875 -12.734375 C 23.835938 -10.921875 25.890625 -10.015625 28.703125 -10.015625 C 32.535156 -10.015625 35.304688 -11.296875 37.015625 -13.859375 C 38.722656 -16.421875 39.578125 -20.664062 39.578125 -26.59375 L 39.578125 -50.21875 L 53.28125 -50.21875 L 53.28125 0 Z M 42.765625 0 "/></g></g></g><g fill="#000000" fill-opacity="1"><g transform="translate(1043.834793, 440.624998)"><g><path d="M 42.234375 -14.921875 C 42.234375 -9.765625 40.441406 -5.835938 36.859375 -3.140625 C 33.273438 -0.441406 27.921875 0.90625 20.796875 0.90625 C 17.140625 0.90625 14.023438 0.65625 11.453125 0.15625 C 8.878906 -0.332031 6.46875 -1.054688 4.21875 -2.015625 L 4.21875 -13.34375 C 6.769531 -12.144531 9.640625 -11.140625 12.828125 -10.328125 C 16.015625 -9.523438 18.820312 -9.125 21.25 -9.125 C 26.21875 -9.125 28.703125 -10.5625 28.703125 -13.4375 C 28.703125 -14.507812 28.375 -15.382812 27.71875 -16.0625 C 27.0625 -16.738281 25.921875 -17.5 24.296875 -18.34375 C 22.679688 -19.195312 20.523438 -20.195312 17.828125 -21.34375 C 13.972656 -22.957031 11.140625 -24.453125 9.328125 -25.828125 C 7.515625 -27.203125 6.195312 -28.78125 5.375 -30.5625 C 4.550781 -32.351562 4.140625 -34.550781 4.140625 -37.15625 C 4.140625 -41.613281 5.867188 -45.0625 9.328125 -47.5 C 12.785156 -49.945312 17.6875 -51.171875 24.03125 -51.171875 C 30.082031 -51.171875 35.96875 -49.851562 41.6875 -47.21875 L 37.5625 -37.328125 C 35.039062 -38.410156 32.6875 -39.296875 30.5 -39.984375 C 28.3125 -40.671875 26.082031 -41.015625 23.8125 -41.015625 C 19.769531 -41.015625 17.75 -39.921875 17.75 -37.734375 C 17.75 -36.503906 18.398438 -35.441406 19.703125 -34.546875 C 21.003906 -33.648438 23.851562 -32.316406 28.25 -30.546875 C 32.175781 -28.960938 35.050781 -27.476562 36.875 -26.09375 C 38.707031 -24.71875 40.054688 -23.128906 40.921875 -21.328125 C 41.796875 -19.535156 42.234375 -17.398438 42.234375 -14.921875 Z M 42.234375 -14.921875 "/></g></g></g><g fill="#000000" fill-opacity="1"><g transform="translate(1089.561353, 440.624998)"><g><path d="M 39.078125 0 L 36.4375 -6.828125 L 36.078125 -6.828125 C 33.765625 -3.921875 31.390625 -1.90625 28.953125 -0.78125 C 26.515625 0.34375 23.332031 0.90625 19.40625 0.90625 C 14.582031 0.90625 10.785156 -0.472656 8.015625 -3.234375 C 5.242188 -5.992188 3.859375 -9.914062 3.859375 -15 C 3.859375 -20.332031 5.722656 -24.265625 9.453125 -26.796875 C 13.179688 -29.328125 18.804688 -30.726562 26.328125 -31 L 35.046875 -31.265625 L 35.046875 -33.46875 C 35.046875 -38.5625 32.4375 -41.109375 27.21875 -41.109375 C 23.207031 -41.109375 18.492188 -39.894531 13.078125 -37.46875 L 8.53125 -46.71875 C 14.3125 -49.738281 20.722656 -51.25 27.765625 -51.25 C 34.503906 -51.25 39.671875 -49.78125 43.265625 -46.84375 C 46.859375 -43.914062 48.65625 -39.457031 48.65625 -33.46875 L 48.65625 0 Z M 35.046875 -23.265625 L 29.734375 -23.09375 C 25.753906 -22.96875 22.789062 -22.242188 20.84375 -20.921875 C 18.894531 -19.609375 17.921875 -17.609375 17.921875 -14.921875 C 17.921875 -11.054688 20.140625 -9.125 24.578125 -9.125 C 27.742188 -9.125 30.28125 -10.035156 32.1875 -11.859375 C 34.09375 -13.679688 35.046875 -16.109375 35.046875 -19.140625 Z M 35.046875 -23.265625 "/></g></g></g><g fill="#000000" fill-opacity="1"><g transform="translate(1145.12498, 440.624998)"><g><path d="M 53.546875 0 L 39.84375 0 L 39.84375 -29.328125 C 39.84375 -32.953125 39.195312 -35.671875 37.90625 -37.484375 C 36.625 -39.296875 34.578125 -40.203125 31.765625 -40.203125 C 27.929688 -40.203125 25.160156 -38.921875 23.453125 -36.359375 C 21.742188 -33.804688 20.890625 -29.5625 20.890625 -23.625 L 20.890625 0 L 7.1875 0 L 7.1875 -50.21875 L 17.65625 -50.21875 L 19.5 -43.796875 L 20.265625 -43.796875 C 21.785156 -46.222656 23.882812 -48.054688 26.5625 -49.296875 C 29.25 -50.546875 32.300781 -51.171875 35.71875 -51.171875 C 41.550781 -51.171875 45.976562 -49.585938 49 -46.421875 C 52.03125 -43.265625 53.546875 -38.707031 53.546875 -32.75 Z M 53.546875 0 "/></g></g></g><g fill="#000000" fill-opacity="1"><g transform="translate(1205.584663, 440.624998)"><g><path d="M 28.34375 -10.015625 C 30.738281 -10.015625 33.613281 -10.539062 36.96875 -11.59375 L 36.96875 -1.390625 C 33.550781 0.140625 29.359375 0.90625 24.390625 0.90625 C 18.910156 0.90625 14.921875 -0.476562 12.421875 -3.25 C 9.921875 -6.019531 8.671875 -10.175781 8.671875 -15.71875 L 8.671875 -39.9375 L 2.109375 -39.9375 L 2.109375 -45.734375 L 9.65625 -50.3125 L 13.609375 -60.921875 L 22.375 -60.921875 L 22.375 -50.21875 L 36.4375 -50.21875 L 36.4375 -39.9375 L 22.375 -39.9375 L 22.375 -15.71875 C 22.375 -13.769531 22.921875 -12.332031 24.015625 -11.40625 C 25.109375 -10.476562 26.550781 -10.015625 28.34375 -10.015625 Z M 28.34375 -10.015625 "/></g></g></g><g fill="#000000" fill-opacity="1"><g transform="translate(1245.516851, 440.624998)"><g><path d="M 39.078125 0 L 36.4375 -6.828125 L 36.078125 -6.828125 C 33.765625 -3.921875 31.390625 -1.90625 28.953125 -0.78125 C 26.515625 0.34375 23.332031 0.90625 19.40625 0.90625 C 14.582031 0.90625 10.785156 -0.472656 8.015625 -3.234375 C 5.242188 -5.992188 3.859375 -9.914062 3.859375 -15 C 3.859375 -20.332031 5.722656 -24.265625 9.453125 -26.796875 C 13.179688 -29.328125 18.804688 -30.726562 26.328125 -31 L 35.046875 -31.265625 L 35.046875 -33.46875 C 35.046875 -38.5625 32.4375 -41.109375 27.21875 -41.109375 C 23.207031 -41.109375 18.492188 -39.894531 13.078125 -37.46875 L 8.53125 -46.71875 C 14.3125 -49.738281 20.722656 -51.25 27.765625 -51.25 C 34.503906 -51.25 39.671875 -49.78125 43.265625 -46.84375 C 46.859375 -43.914062 48.65625 -39.457031 48.65625 -33.46875 L 48.65625 0 Z M 35.046875 -23.265625 L 29.734375 -23.09375 C 25.753906 -22.96875 22.789062 -22.242188 20.84375 -20.921875 C 18.894531 -19.609375 17.921875 -17.609375 17.921875 -14.921875 C 17.921875 -11.054688 20.140625 -9.125 24.578125 -9.125 C 27.742188 -9.125 30.28125 -10.035156 32.1875 -11.859375 C 34.09375 -13.679688 35.046875 -16.109375 35.046875 -19.140625 Z M 35.046875 -23.265625 "/></g></g></g><g fill="#000000" fill-opacity="1"><g transform="translate(1301.080478, 440.624998)"><g><path d="M 35.21875 -51.171875 C 37.070312 -51.171875 38.613281 -51.035156 39.84375 -50.765625 L 38.8125 -37.921875 C 37.707031 -38.210938 36.359375 -38.359375 34.765625 -38.359375 C 30.398438 -38.359375 26.992188 -37.234375 24.546875 -34.984375 C 22.109375 -32.742188 20.890625 -29.601562 20.890625 -25.5625 L 20.890625 0 L 7.1875 0 L 7.1875 -50.21875 L 17.5625 -50.21875 L 19.59375 -41.78125 L 20.265625 -41.78125 C 21.816406 -44.59375 23.914062 -46.859375 26.5625 -48.578125 C 29.21875 -50.304688 32.101562 -51.171875 35.21875 -51.171875 Z M 35.21875 -51.171875 "/></g></g></g><g fill="#000000" fill-opacity="1"><g transform="translate(1342.854248, 440.624998)"><g><path d="M 39.078125 0 L 36.4375 -6.828125 L 36.078125 -6.828125 C 33.765625 -3.921875 31.390625 -1.90625 28.953125 -0.78125 C 26.515625 0.34375 23.332031 0.90625 19.40625 0.90625 C 14.582031 0.90625 10.785156 -0.472656 8.015625 -3.234375 C 5.242188 -5.992188 3.859375 -9.914062 3.859375 -15 C 3.859375 -20.332031 5.722656 -24.265625 9.453125 -26.796875 C 13.179688 -29.328125 18.804688 -30.726562 26.328125 -31 L 35.046875 -31.265625 L 35.046875 -33.46875 C 35.046875 -38.5625 32.4375 -41.109375 27.21875 -41.109375 C 23.207031 -41.109375 18.492188 -39.894531 13.078125 -37.46875 L 8.53125 -46.71875 C 14.3125 -49.738281 20.722656 -51.25 27.765625 -51.25 C 34.503906 -51.25 39.671875 -49.78125 43.265625 -46.84375 C 46.859375 -43.914062 48.65625 -39.457031 48.65625 -33.46875 L 48.65625 0 Z M 35.046875 -23.265625 L 29.734375 -23.09375 C 25.753906 -22.96875 22.789062 -22.242188 20.84375 -20.921875 C 18.894531 -19.609375 17.921875 -17.609375 17.921875 -14.921875 C 17.921875 -11.054688 20.140625 -9.125 24.578125 -9.125 C 27.742188 -9.125 30.28125 -10.035156 32.1875 -11.859375 C 34.09375 -13.679688 35.046875 -16.109375 35.046875 -19.140625 Z M 35.046875 -23.265625 "/></g></g></g></svg>