<svg xmlns="http://www.w3.org/2000/svg" xmlns:xlink="http://www.w3.org/1999/xlink" width="1080" zoomAndPan="magnify" viewBox="0 0 810 809.999993" height="1080" preserveAspectRatio="xMidYMid meet" version="1.0"><defs><g/></defs><rect x="-81" width="972" fill="#ffffff" y="-80.999999" height="971.999992" fill-opacity="1"/><rect x="-81" width="972" fill="#ffffff" y="-80.999999" height="971.999992" fill-opacity="1"/><g fill="#000000" fill-opacity="1"><g transform="translate(38.425783, 381.899972)"><g><path d="M 19.296875 -30.234375 L 23.28125 -30.234375 C 27.007812 -30.234375 29.796875 -30.96875 31.640625 -32.4375 C 33.492188 -33.914062 34.421875 -36.0625 34.421875 -38.875 C 34.421875 -41.707031 33.644531 -43.800781 32.09375 -45.15625 C 30.539062 -46.507812 28.113281 -47.1875 24.8125 -47.1875 L 19.296875 -47.1875 Z M 46.640625 -39.296875 C 46.640625 -33.148438 44.71875 -28.445312 40.875 -25.1875 C 37.039062 -21.9375 31.582031 -20.3125 24.5 -20.3125 L 19.296875 -20.3125 L 19.296875 0 L 7.1875 0 L 7.1875 -57.109375 L 25.4375 -57.109375 C 32.363281 -57.109375 37.628906 -55.617188 41.234375 -52.640625 C 44.835938 -49.660156 46.640625 -45.210938 46.640625 -39.296875 Z M 46.640625 -39.296875 "/></g></g></g><g fill="#000000" fill-opacity="1"><g transform="translate(88.65525, 381.899972)"><g><path d="M 29.21875 0 L 17.109375 0 L 17.109375 -47.03125 L 1.609375 -47.03125 L 1.609375 -57.109375 L 44.734375 -57.109375 L 44.734375 -47.03125 L 29.21875 -47.03125 Z M 29.21875 0 "/></g></g></g><g fill="#000000" fill-opacity="1"><g transform="translate(134.978848, 381.899972)"><g><path d="M 4.578125 -5.59375 C 4.578125 -7.78125 5.160156 -9.429688 6.328125 -10.546875 C 7.503906 -11.671875 9.210938 -12.234375 11.453125 -12.234375 C 13.609375 -12.234375 15.28125 -11.660156 16.46875 -10.515625 C 17.65625 -9.367188 18.25 -7.726562 18.25 -5.59375 C 18.25 -3.53125 17.648438 -1.90625 16.453125 -0.71875 C 15.253906 0.464844 13.585938 1.0625 11.453125 1.0625 C 9.265625 1.0625 7.570312 0.480469 6.375 -0.671875 C 5.175781 -1.835938 4.578125 -3.476562 4.578125 -5.59375 Z M 4.578125 -5.59375 "/></g></g></g><g fill="#000000" fill-opacity="1"><g transform="translate(157.789119, 381.899972)"><g/></g></g><g fill="#000000" fill-opacity="1"><g transform="translate(178.568338, 381.899972)"><g><path d="M 19.296875 -30.234375 L 23.28125 -30.234375 C 27.007812 -30.234375 29.796875 -30.96875 31.640625 -32.4375 C 33.492188 -33.914062 34.421875 -36.0625 34.421875 -38.875 C 34.421875 -41.707031 33.644531 -43.800781 32.09375 -45.15625 C 30.539062 -46.507812 28.113281 -47.1875 24.8125 -47.1875 L 19.296875 -47.1875 Z M 46.640625 -39.296875 C 46.640625 -33.148438 44.71875 -28.445312 40.875 -25.1875 C 37.039062 -21.9375 31.582031 -20.3125 24.5 -20.3125 L 19.296875 -20.3125 L 19.296875 0 L 7.1875 0 L 7.1875 -57.109375 L 25.4375 -57.109375 C 32.363281 -57.109375 37.628906 -55.617188 41.234375 -52.640625 C 44.835938 -49.660156 46.640625 -45.210938 46.640625 -39.296875 Z M 46.640625 -39.296875 "/></g></g></g><g fill="#000000" fill-opacity="1"><g transform="translate(228.797805, 381.899972)"><g><path d="M 24.34375 -36.015625 C 21.8125 -36.015625 19.828125 -35.210938 18.390625 -33.609375 C 16.960938 -32.015625 16.144531 -29.742188 15.9375 -26.796875 L 32.65625 -26.796875 C 32.601562 -29.742188 31.832031 -32.015625 30.34375 -33.609375 C 28.863281 -35.210938 26.863281 -36.015625 24.34375 -36.015625 Z M 26.015625 0.78125 C 18.984375 0.78125 13.488281 -1.15625 9.53125 -5.03125 C 5.570312 -8.914062 3.59375 -14.414062 3.59375 -21.53125 C 3.59375 -28.84375 5.421875 -34.5 9.078125 -38.5 C 12.742188 -42.5 17.804688 -44.5 24.265625 -44.5 C 30.429688 -44.5 35.234375 -42.738281 38.671875 -39.21875 C 42.109375 -35.707031 43.828125 -30.851562 43.828125 -24.65625 L 43.828125 -18.875 L 15.671875 -18.875 C 15.796875 -15.488281 16.796875 -12.84375 18.671875 -10.9375 C 20.546875 -9.039062 23.175781 -8.09375 26.5625 -8.09375 C 29.195312 -8.09375 31.6875 -8.363281 34.03125 -8.90625 C 36.375 -9.457031 38.820312 -10.332031 41.375 -11.53125 L 41.375 -2.3125 C 39.289062 -1.269531 37.0625 -0.492188 34.6875 0.015625 C 32.320312 0.523438 29.429688 0.78125 26.015625 0.78125 Z M 26.015625 0.78125 "/></g></g></g><g fill="#000000" fill-opacity="1"><g transform="translate(276.058812, 381.899972)"><g><path d="M 30.625 -44.5 C 32.238281 -44.5 33.582031 -44.378906 34.65625 -44.140625 L 33.75 -32.96875 C 32.789062 -33.226562 31.617188 -33.359375 30.234375 -33.359375 C 26.429688 -33.359375 23.46875 -32.378906 21.34375 -30.421875 C 19.226562 -28.472656 18.171875 -25.742188 18.171875 -22.234375 L 18.171875 0 L 6.25 0 L 6.25 -43.671875 L 15.28125 -43.671875 L 17.03125 -36.328125 L 17.625 -36.328125 C 18.976562 -38.773438 20.804688 -40.75 23.109375 -42.25 C 25.410156 -43.75 27.914062 -44.5 30.625 -44.5 Z M 30.625 -44.5 "/></g></g></g><g fill="#000000" fill-opacity="1"><g transform="translate(312.383388, 381.899972)"><g><path d="M 24.65625 -8.71875 C 26.738281 -8.71875 29.238281 -9.171875 32.15625 -10.078125 L 32.15625 -1.21875 C 29.1875 0.113281 25.539062 0.78125 21.21875 0.78125 C 16.445312 0.78125 12.972656 -0.421875 10.796875 -2.828125 C 8.628906 -5.242188 7.546875 -8.859375 7.546875 -13.671875 L 7.546875 -34.734375 L 1.84375 -34.734375 L 1.84375 -39.765625 L 8.40625 -43.75 L 11.84375 -52.96875 L 19.453125 -52.96875 L 19.453125 -43.671875 L 31.6875 -43.671875 L 31.6875 -34.734375 L 19.453125 -34.734375 L 19.453125 -13.671875 C 19.453125 -11.984375 19.925781 -10.734375 20.875 -9.921875 C 21.832031 -9.117188 23.09375 -8.71875 24.65625 -8.71875 Z M 24.65625 -8.71875 "/></g></g></g><g fill="#000000" fill-opacity="1"><g transform="translate(347.106569, 381.899972)"><g><path d="M 33.984375 0 L 31.6875 -5.9375 L 31.375 -5.9375 C 29.363281 -3.414062 27.296875 -1.664062 25.171875 -0.6875 C 23.054688 0.289062 20.289062 0.78125 16.875 0.78125 C 12.6875 0.78125 9.382812 -0.414062 6.96875 -2.8125 C 4.5625 -5.207031 3.359375 -8.617188 3.359375 -13.046875 C 3.359375 -17.679688 4.976562 -21.097656 8.21875 -23.296875 C 11.46875 -25.503906 16.359375 -26.722656 22.890625 -26.953125 L 30.46875 -27.1875 L 30.46875 -29.109375 C 30.46875 -33.535156 28.203125 -35.75 23.671875 -35.75 C 20.179688 -35.75 16.082031 -34.691406 11.375 -32.578125 L 7.421875 -40.625 C 12.453125 -43.257812 18.023438 -44.578125 24.140625 -44.578125 C 30.003906 -44.578125 34.5 -43.300781 37.625 -40.75 C 40.75 -38.195312 42.3125 -34.316406 42.3125 -29.109375 L 42.3125 0 Z M 30.46875 -20.234375 L 25.859375 -20.078125 C 22.398438 -19.972656 19.820312 -19.347656 18.125 -18.203125 C 16.4375 -17.054688 15.59375 -15.3125 15.59375 -12.96875 C 15.59375 -9.613281 17.519531 -7.9375 21.375 -7.9375 C 24.132812 -7.9375 26.335938 -8.726562 27.984375 -10.3125 C 29.640625 -11.90625 30.46875 -14.015625 30.46875 -16.640625 Z M 30.46875 -20.234375 "/></g></g></g><g fill="#000000" fill-opacity="1"><g transform="translate(395.422148, 381.899972)"><g><path d="M 45.359375 0 L 33.4375 0 L 33.4375 -25.515625 C 33.4375 -28.660156 32.910156 -31.019531 31.859375 -32.59375 C 30.804688 -34.175781 29.144531 -34.96875 26.875 -34.96875 C 23.832031 -34.96875 21.617188 -33.847656 20.234375 -31.609375 C 18.859375 -29.367188 18.171875 -25.679688 18.171875 -20.546875 L 18.171875 0 L 6.25 0 L 6.25 -43.671875 L 15.359375 -43.671875 L 16.953125 -38.09375 L 17.625 -38.09375 C 18.789062 -40.09375 20.476562 -41.660156 22.6875 -42.796875 C 24.90625 -43.929688 27.445312 -44.5 30.3125 -44.5 C 36.851562 -44.5 41.28125 -42.363281 43.59375 -38.09375 L 44.65625 -38.09375 C 45.820312 -40.125 47.546875 -41.695312 49.828125 -42.8125 C 52.109375 -43.9375 54.679688 -44.5 57.546875 -44.5 C 62.492188 -44.5 66.234375 -43.226562 68.765625 -40.6875 C 71.304688 -38.144531 72.578125 -34.078125 72.578125 -28.484375 L 72.578125 0 L 60.625 0 L 60.625 -25.515625 C 60.625 -28.660156 60.097656 -31.019531 59.046875 -32.59375 C 57.992188 -34.175781 56.332031 -34.96875 54.0625 -34.96875 C 51.144531 -34.96875 48.960938 -33.925781 47.515625 -31.84375 C 46.078125 -29.757812 45.359375 -26.453125 45.359375 -21.921875 Z M 45.359375 0 "/></g></g></g><g fill="#000000" fill-opacity="1"><g transform="translate(473.969172, 381.899972)"><g><path d="M 30.546875 -44.5 C 35.703125 -44.5 39.738281 -42.484375 42.65625 -38.453125 C 45.570312 -34.429688 47.03125 -28.921875 47.03125 -21.921875 C 47.03125 -14.703125 45.523438 -9.113281 42.515625 -5.15625 C 39.515625 -1.195312 35.421875 0.78125 30.234375 0.78125 C 25.109375 0.78125 21.085938 -1.082031 18.171875 -4.8125 L 17.34375 -4.8125 L 15.359375 0 L 6.25 0 L 6.25 -60.78125 L 18.171875 -60.78125 L 18.171875 -46.640625 C 18.171875 -44.847656 18.015625 -41.972656 17.703125 -38.015625 L 18.171875 -38.015625 C 20.953125 -42.335938 25.078125 -44.5 30.546875 -44.5 Z M 26.71875 -34.96875 C 23.78125 -34.96875 21.632812 -34.0625 20.28125 -32.25 C 18.925781 -30.4375 18.222656 -27.445312 18.171875 -23.28125 L 18.171875 -22 C 18.171875 -17.3125 18.863281 -13.953125 20.25 -11.921875 C 21.644531 -9.890625 23.851562 -8.875 26.875 -8.875 C 29.320312 -8.875 31.269531 -10 32.71875 -12.25 C 34.164062 -14.5 34.890625 -17.773438 34.890625 -22.078125 C 34.890625 -26.367188 34.160156 -29.585938 32.703125 -31.734375 C 31.242188 -33.890625 29.25 -34.96875 26.71875 -34.96875 Z M 26.71875 -34.96875 "/></g></g></g><g fill="#000000" fill-opacity="1"><g transform="translate(524.589225, 381.899972)"><g><path d="M 33.984375 0 L 31.6875 -5.9375 L 31.375 -5.9375 C 29.363281 -3.414062 27.296875 -1.664062 25.171875 -0.6875 C 23.054688 0.289062 20.289062 0.78125 16.875 0.78125 C 12.6875 0.78125 9.382812 -0.414062 6.96875 -2.8125 C 4.5625 -5.207031 3.359375 -8.617188 3.359375 -13.046875 C 3.359375 -17.679688 4.976562 -21.097656 8.21875 -23.296875 C 11.46875 -25.503906 16.359375 -26.722656 22.890625 -26.953125 L 30.46875 -27.1875 L 30.46875 -29.109375 C 30.46875 -33.535156 28.203125 -35.75 23.671875 -35.75 C 20.179688 -35.75 16.082031 -34.691406 11.375 -32.578125 L 7.421875 -40.625 C 12.453125 -43.257812 18.023438 -44.578125 24.140625 -44.578125 C 30.003906 -44.578125 34.5 -43.300781 37.625 -40.75 C 40.75 -38.195312 42.3125 -34.316406 42.3125 -29.109375 L 42.3125 0 Z M 30.46875 -20.234375 L 25.859375 -20.078125 C 22.398438 -19.972656 19.820312 -19.347656 18.125 -18.203125 C 16.4375 -17.054688 15.59375 -15.3125 15.59375 -12.96875 C 15.59375 -9.613281 17.519531 -7.9375 21.375 -7.9375 C 24.132812 -7.9375 26.335938 -8.726562 27.984375 -10.3125 C 29.640625 -11.90625 30.46875 -14.015625 30.46875 -16.640625 Z M 30.46875 -20.234375 "/></g></g></g><g fill="#000000" fill-opacity="1"><g transform="translate(572.904805, 381.899972)"><g><path d="M 46.5625 0 L 34.65625 0 L 34.65625 -25.515625 C 34.65625 -28.660156 34.09375 -31.019531 32.96875 -32.59375 C 31.851562 -34.175781 30.070312 -34.96875 27.625 -34.96875 C 24.289062 -34.96875 21.878906 -33.851562 20.390625 -31.625 C 18.910156 -29.394531 18.171875 -25.703125 18.171875 -20.546875 L 18.171875 0 L 6.25 0 L 6.25 -43.671875 L 15.359375 -43.671875 L 16.953125 -38.09375 L 17.625 -38.09375 C 18.945312 -40.195312 20.773438 -41.789062 23.109375 -42.875 C 25.441406 -43.957031 28.09375 -44.5 31.0625 -44.5 C 36.132812 -44.5 39.984375 -43.125 42.609375 -40.375 C 45.242188 -37.625 46.5625 -33.660156 46.5625 -28.484375 Z M 46.5625 0 "/></g></g></g><g fill="#000000" fill-opacity="1"><g transform="translate(625.477816, 381.899972)"><g><path d="M 44.265625 -43.671875 L 44.265625 -37.625 L 37.421875 -35.859375 C 38.671875 -33.910156 39.296875 -31.722656 39.296875 -29.296875 C 39.296875 -24.609375 37.660156 -20.957031 34.390625 -18.34375 C 31.128906 -15.726562 26.59375 -14.421875 20.78125 -14.421875 L 18.640625 -14.53125 L 16.875 -14.734375 C 15.65625 -13.796875 15.046875 -12.753906 15.046875 -11.609375 C 15.046875 -9.890625 17.234375 -9.03125 21.609375 -9.03125 L 29.03125 -9.03125 C 33.820312 -9.03125 37.472656 -8 39.984375 -5.9375 C 42.492188 -3.882812 43.75 -0.863281 43.75 3.125 C 43.75 8.226562 41.617188 12.1875 37.359375 15 C 33.109375 17.8125 27 19.21875 19.03125 19.21875 C 12.9375 19.21875 8.28125 18.15625 5.0625 16.03125 C 1.84375 13.914062 0.234375 10.941406 0.234375 7.109375 C 0.234375 4.484375 1.050781 2.28125 2.6875 0.5 C 4.332031 -1.269531 6.742188 -2.53125 9.921875 -3.28125 C 8.703125 -3.800781 7.632812 -4.65625 6.71875 -5.84375 C 5.8125 -7.03125 5.359375 -8.285156 5.359375 -9.609375 C 5.359375 -11.273438 5.835938 -12.660156 6.796875 -13.765625 C 7.765625 -14.878906 9.160156 -15.96875 10.984375 -17.03125 C 8.691406 -18.019531 6.875 -19.609375 5.53125 -21.796875 C 4.1875 -23.984375 3.515625 -26.5625 3.515625 -29.53125 C 3.515625 -34.300781 5.0625 -37.988281 8.15625 -40.59375 C 11.257812 -43.195312 15.691406 -44.5 21.453125 -44.5 C 22.671875 -44.5 24.117188 -44.382812 25.796875 -44.15625 C 27.484375 -43.9375 28.5625 -43.773438 29.03125 -43.671875 Z M 10.546875 6.171875 C 10.546875 7.816406 11.332031 9.109375 12.90625 10.046875 C 14.488281 10.984375 16.695312 11.453125 19.53125 11.453125 C 23.800781 11.453125 27.144531 10.863281 29.5625 9.6875 C 31.988281 8.519531 33.203125 6.921875 33.203125 4.890625 C 33.203125 3.242188 32.484375 2.109375 31.046875 1.484375 C 29.617188 0.859375 27.410156 0.546875 24.421875 0.546875 L 18.25 0.546875 C 16.0625 0.546875 14.226562 1.0625 12.75 2.09375 C 11.28125 3.125 10.546875 4.484375 10.546875 6.171875 Z M 14.890625 -29.375 C 14.890625 -27.007812 15.425781 -25.132812 16.5 -23.75 C 17.582031 -22.375 19.234375 -21.6875 21.453125 -21.6875 C 23.691406 -21.6875 25.332031 -22.375 26.375 -23.75 C 27.414062 -25.132812 27.9375 -27.007812 27.9375 -29.375 C 27.9375 -34.632812 25.773438 -37.265625 21.453125 -37.265625 C 17.078125 -37.265625 14.890625 -34.632812 14.890625 -29.375 Z M 14.890625 -29.375 "/></g></g></g><g fill="#000000" fill-opacity="1"><g transform="translate(670.668701, 381.899972)"><g><path d="M 33.984375 0 L 31.6875 -5.9375 L 31.375 -5.9375 C 29.363281 -3.414062 27.296875 -1.664062 25.171875 -0.6875 C 23.054688 0.289062 20.289062 0.78125 16.875 0.78125 C 12.6875 0.78125 9.382812 -0.414062 6.96875 -2.8125 C 4.5625 -5.207031 3.359375 -8.617188 3.359375 -13.046875 C 3.359375 -17.679688 4.976562 -21.097656 8.21875 -23.296875 C 11.46875 -25.503906 16.359375 -26.722656 22.890625 -26.953125 L 30.46875 -27.1875 L 30.46875 -29.109375 C 30.46875 -33.535156 28.203125 -35.75 23.671875 -35.75 C 20.179688 -35.75 16.082031 -34.691406 11.375 -32.578125 L 7.421875 -40.625 C 12.453125 -43.257812 18.023438 -44.578125 24.140625 -44.578125 C 30.003906 -44.578125 34.5 -43.300781 37.625 -40.75 C 40.75 -38.195312 42.3125 -34.316406 42.3125 -29.109375 L 42.3125 0 Z M 30.46875 -20.234375 L 25.859375 -20.078125 C 22.398438 -19.972656 19.820312 -19.347656 18.125 -18.203125 C 16.4375 -17.054688 15.59375 -15.3125 15.59375 -12.96875 C 15.59375 -9.613281 17.519531 -7.9375 21.375 -7.9375 C 24.132812 -7.9375 26.335938 -8.726562 27.984375 -10.3125 C 29.640625 -11.90625 30.46875 -14.015625 30.46875 -16.640625 Z M 30.46875 -20.234375 "/></g></g></g><g fill="#000000" fill-opacity="1"><g transform="translate(718.984281, 381.899972)"><g><path d="M 46.5625 0 L 34.65625 0 L 34.65625 -25.515625 C 34.65625 -28.660156 34.09375 -31.019531 32.96875 -32.59375 C 31.851562 -34.175781 30.070312 -34.96875 27.625 -34.96875 C 24.289062 -34.96875 21.878906 -33.851562 20.390625 -31.625 C 18.910156 -29.394531 18.171875 -25.703125 18.171875 -20.546875 L 18.171875 0 L 6.25 0 L 6.25 -43.671875 L 15.359375 -43.671875 L 16.953125 -38.09375 L 17.625 -38.09375 C 18.945312 -40.195312 20.773438 -41.789062 23.109375 -42.875 C 25.441406 -43.957031 28.09375 -44.5 31.0625 -44.5 C 36.132812 -44.5 39.984375 -43.125 42.609375 -40.375 C 45.242188 -37.625 46.5625 -33.660156 46.5625 -28.484375 Z M 46.5625 0 "/></g></g></g><g fill="#000000" fill-opacity="1"><g transform="translate(192.023431, 470.399968)"><g><path d="M 57.859375 0 L 42.46875 0 L 17.625 -43.203125 L 17.265625 -43.203125 C 17.765625 -35.578125 18.015625 -30.132812 18.015625 -26.875 L 18.015625 0 L 7.1875 0 L 7.1875 -57.109375 L 22.46875 -57.109375 L 47.265625 -14.34375 L 47.546875 -14.34375 C 47.148438 -21.757812 46.953125 -27.003906 46.953125 -30.078125 L 46.953125 -57.109375 L 57.859375 -57.109375 Z M 57.859375 0 "/></g></g></g><g fill="#000000" fill-opacity="1"><g transform="translate(257.056139, 470.399968)"><g><path d="M 37.1875 0 L 35.59375 -5.59375 L 34.96875 -5.59375 C 33.6875 -3.5625 31.875 -1.988281 29.53125 -0.875 C 27.1875 0.226562 24.519531 0.78125 21.53125 0.78125 C 16.394531 0.78125 12.523438 -0.59375 9.921875 -3.34375 C 7.316406 -6.09375 6.015625 -10.046875 6.015625 -15.203125 L 6.015625 -43.671875 L 17.9375 -43.671875 L 17.9375 -18.171875 C 17.9375 -15.015625 18.492188 -12.648438 19.609375 -11.078125 C 20.734375 -9.503906 22.519531 -8.71875 24.96875 -8.71875 C 28.300781 -8.71875 30.707031 -9.828125 32.1875 -12.046875 C 33.675781 -14.273438 34.421875 -17.96875 34.421875 -23.125 L 34.421875 -43.671875 L 46.328125 -43.671875 L 46.328125 0 Z M 37.1875 0 "/></g></g></g><g fill="#000000" fill-opacity="1"><g transform="translate(309.629127, 470.399968)"><g><path d="M 36.71875 -12.96875 C 36.71875 -8.488281 35.160156 -5.078125 32.046875 -2.734375 C 28.941406 -0.390625 24.289062 0.78125 18.09375 0.78125 C 14.914062 0.78125 12.207031 0.5625 9.96875 0.125 C 7.726562 -0.300781 5.628906 -0.929688 3.671875 -1.765625 L 3.671875 -11.609375 C 5.890625 -10.566406 8.382812 -9.691406 11.15625 -8.984375 C 13.925781 -8.285156 16.367188 -7.9375 18.484375 -7.9375 C 22.804688 -7.9375 24.96875 -9.1875 24.96875 -11.6875 C 24.96875 -12.625 24.679688 -13.382812 24.109375 -13.96875 C 23.535156 -14.550781 22.546875 -15.210938 21.140625 -15.953125 C 19.734375 -16.703125 17.859375 -17.570312 15.515625 -18.5625 C 12.148438 -19.96875 9.679688 -21.269531 8.109375 -22.46875 C 6.535156 -23.664062 5.390625 -25.035156 4.671875 -26.578125 C 3.953125 -28.128906 3.59375 -30.039062 3.59375 -32.3125 C 3.59375 -36.1875 5.097656 -39.1875 8.109375 -41.3125 C 11.117188 -43.4375 15.382812 -44.5 20.90625 -44.5 C 26.164062 -44.5 31.28125 -43.351562 36.25 -41.0625 L 32.65625 -32.46875 C 30.46875 -33.40625 28.421875 -34.171875 26.515625 -34.765625 C 24.617188 -35.367188 22.679688 -35.671875 20.703125 -35.671875 C 17.191406 -35.671875 15.4375 -34.71875 15.4375 -32.8125 C 15.4375 -31.75 16 -30.828125 17.125 -30.046875 C 18.257812 -29.265625 20.742188 -28.101562 24.578125 -26.5625 C 27.984375 -25.1875 30.476562 -23.898438 32.0625 -22.703125 C 33.65625 -21.503906 34.828125 -20.125 35.578125 -18.5625 C 36.335938 -17 36.71875 -15.132812 36.71875 -12.96875 Z M 36.71875 -12.96875 "/></g></g></g><g fill="#000000" fill-opacity="1"><g transform="translate(349.390867, 470.399968)"><g><path d="M 33.984375 0 L 31.6875 -5.9375 L 31.375 -5.9375 C 29.363281 -3.414062 27.296875 -1.664062 25.171875 -0.6875 C 23.054688 0.289062 20.289062 0.78125 16.875 0.78125 C 12.6875 0.78125 9.382812 -0.414062 6.96875 -2.8125 C 4.5625 -5.207031 3.359375 -8.617188 3.359375 -13.046875 C 3.359375 -17.679688 4.976562 -21.097656 8.21875 -23.296875 C 11.46875 -25.503906 16.359375 -26.722656 22.890625 -26.953125 L 30.46875 -27.1875 L 30.46875 -29.109375 C 30.46875 -33.535156 28.203125 -35.75 23.671875 -35.75 C 20.179688 -35.75 16.082031 -34.691406 11.375 -32.578125 L 7.421875 -40.625 C 12.453125 -43.257812 18.023438 -44.578125 24.140625 -44.578125 C 30.003906 -44.578125 34.5 -43.300781 37.625 -40.75 C 40.75 -38.195312 42.3125 -34.316406 42.3125 -29.109375 L 42.3125 0 Z M 30.46875 -20.234375 L 25.859375 -20.078125 C 22.398438 -19.972656 19.820312 -19.347656 18.125 -18.203125 C 16.4375 -17.054688 15.59375 -15.3125 15.59375 -12.96875 C 15.59375 -9.613281 17.519531 -7.9375 21.375 -7.9375 C 24.132812 -7.9375 26.335938 -8.726562 27.984375 -10.3125 C 29.640625 -11.90625 30.46875 -14.015625 30.46875 -16.640625 Z M 30.46875 -20.234375 "/></g></g></g><g fill="#000000" fill-opacity="1"><g transform="translate(397.706458, 470.399968)"><g><path d="M 46.5625 0 L 34.65625 0 L 34.65625 -25.515625 C 34.65625 -28.660156 34.09375 -31.019531 32.96875 -32.59375 C 31.851562 -34.175781 30.070312 -34.96875 27.625 -34.96875 C 24.289062 -34.96875 21.878906 -33.851562 20.390625 -31.625 C 18.910156 -29.394531 18.171875 -25.703125 18.171875 -20.546875 L 18.171875 0 L 6.25 0 L 6.25 -43.671875 L 15.359375 -43.671875 L 16.953125 -38.09375 L 17.625 -38.09375 C 18.945312 -40.195312 20.773438 -41.789062 23.109375 -42.875 C 25.441406 -43.957031 28.09375 -44.5 31.0625 -44.5 C 36.132812 -44.5 39.984375 -43.125 42.609375 -40.375 C 45.242188 -37.625 46.5625 -33.660156 46.5625 -28.484375 Z M 46.5625 0 "/></g></g></g><g fill="#000000" fill-opacity="1"><g transform="translate(450.279447, 470.399968)"><g><path d="M 24.65625 -8.71875 C 26.738281 -8.71875 29.238281 -9.171875 32.15625 -10.078125 L 32.15625 -1.21875 C 29.1875 0.113281 25.539062 0.78125 21.21875 0.78125 C 16.445312 0.78125 12.972656 -0.421875 10.796875 -2.828125 C 8.628906 -5.242188 7.546875 -8.859375 7.546875 -13.671875 L 7.546875 -34.734375 L 1.84375 -34.734375 L 1.84375 -39.765625 L 8.40625 -43.75 L 11.84375 -52.96875 L 19.453125 -52.96875 L 19.453125 -43.671875 L 31.6875 -43.671875 L 31.6875 -34.734375 L 19.453125 -34.734375 L 19.453125 -13.671875 C 19.453125 -11.984375 19.925781 -10.734375 20.875 -9.921875 C 21.832031 -9.117188 23.09375 -8.71875 24.65625 -8.71875 Z M 24.65625 -8.71875 "/></g></g></g><g fill="#000000" fill-opacity="1"><g transform="translate(485.002604, 470.399968)"><g><path d="M 33.984375 0 L 31.6875 -5.9375 L 31.375 -5.9375 C 29.363281 -3.414062 27.296875 -1.664062 25.171875 -0.6875 C 23.054688 0.289062 20.289062 0.78125 16.875 0.78125 C 12.6875 0.78125 9.382812 -0.414062 6.96875 -2.8125 C 4.5625 -5.207031 3.359375 -8.617188 3.359375 -13.046875 C 3.359375 -17.679688 4.976562 -21.097656 8.21875 -23.296875 C 11.46875 -25.503906 16.359375 -26.722656 22.890625 -26.953125 L 30.46875 -27.1875 L 30.46875 -29.109375 C 30.46875 -33.535156 28.203125 -35.75 23.671875 -35.75 C 20.179688 -35.75 16.082031 -34.691406 11.375 -32.578125 L 7.421875 -40.625 C 12.453125 -43.257812 18.023438 -44.578125 24.140625 -44.578125 C 30.003906 -44.578125 34.5 -43.300781 37.625 -40.75 C 40.75 -38.195312 42.3125 -34.316406 42.3125 -29.109375 L 42.3125 0 Z M 30.46875 -20.234375 L 25.859375 -20.078125 C 22.398438 -19.972656 19.820312 -19.347656 18.125 -18.203125 C 16.4375 -17.054688 15.59375 -15.3125 15.59375 -12.96875 C 15.59375 -9.613281 17.519531 -7.9375 21.375 -7.9375 C 24.132812 -7.9375 26.335938 -8.726562 27.984375 -10.3125 C 29.640625 -11.90625 30.46875 -14.015625 30.46875 -16.640625 Z M 30.46875 -20.234375 "/></g></g></g><g fill="#000000" fill-opacity="1"><g transform="translate(533.318207, 470.399968)"><g><path d="M 30.625 -44.5 C 32.238281 -44.5 33.582031 -44.378906 34.65625 -44.140625 L 33.75 -32.96875 C 32.789062 -33.226562 31.617188 -33.359375 30.234375 -33.359375 C 26.429688 -33.359375 23.46875 -32.378906 21.34375 -30.421875 C 19.226562 -28.472656 18.171875 -25.742188 18.171875 -22.234375 L 18.171875 0 L 6.25 0 L 6.25 -43.671875 L 15.28125 -43.671875 L 17.03125 -36.328125 L 17.625 -36.328125 C 18.976562 -38.773438 20.804688 -40.75 23.109375 -42.25 C 25.410156 -43.75 27.914062 -44.5 30.625 -44.5 Z M 30.625 -44.5 "/></g></g></g><g fill="#000000" fill-opacity="1"><g transform="translate(569.642783, 470.399968)"><g><path d="M 33.984375 0 L 31.6875 -5.9375 L 31.375 -5.9375 C 29.363281 -3.414062 27.296875 -1.664062 25.171875 -0.6875 C 23.054688 0.289062 20.289062 0.78125 16.875 0.78125 C 12.6875 0.78125 9.382812 -0.414062 6.96875 -2.8125 C 4.5625 -5.207031 3.359375 -8.617188 3.359375 -13.046875 C 3.359375 -17.679688 4.976562 -21.097656 8.21875 -23.296875 C 11.46875 -25.503906 16.359375 -26.722656 22.890625 -26.953125 L 30.46875 -27.1875 L 30.46875 -29.109375 C 30.46875 -33.535156 28.203125 -35.75 23.671875 -35.75 C 20.179688 -35.75 16.082031 -34.691406 11.375 -32.578125 L 7.421875 -40.625 C 12.453125 -43.257812 18.023438 -44.578125 24.140625 -44.578125 C 30.003906 -44.578125 34.5 -43.300781 37.625 -40.75 C 40.75 -38.195312 42.3125 -34.316406 42.3125 -29.109375 L 42.3125 0 Z M 30.46875 -20.234375 L 25.859375 -20.078125 C 22.398438 -19.972656 19.820312 -19.347656 18.125 -18.203125 C 16.4375 -17.054688 15.59375 -15.3125 15.59375 -12.96875 C 15.59375 -9.613281 17.519531 -7.9375 21.375 -7.9375 C 24.132812 -7.9375 26.335938 -8.726562 27.984375 -10.3125 C 29.640625 -11.90625 30.46875 -14.015625 30.46875 -16.640625 Z M 30.46875 -20.234375 "/></g></g></g></svg>